<svg width="22" height="18" viewBox="0 0 22 18" fill="none" xmlns="http://www.w3.org/2000/svg">
<g id="Frame" clip-path="url(#clip0_26_1104)">
<path id="Vector" d="M18.48 0.75C19.7037 0.75 20.1437 0.8875 20.5975 1.12125C21.0375 1.355 21.395 1.7125 21.6287 2.1525C21.8762 2.60625 22 3.04625 22 4.27V13.73C22 14.9537 21.8625 15.3937 21.6287 15.8475C21.3964 16.287 21.037 16.6464 20.5975 16.8787C20.1437 17.1262 19.7037 17.25 18.48 17.25H3.52C2.29625 17.25 1.85625 17.1125 1.4025 16.8787C0.963987 16.645 0.604989 16.286 0.37125 15.8475C0.12375 15.3937 0 14.9537 0 13.73V4.27C0 3.04625 0.1375 2.60625 0.37125 2.1525C0.605 1.7125 0.9625 1.355 1.4025 1.12125C1.85625 0.87375 2.29625 0.75 3.52 0.75H18.48ZM18.7 3.5H3.3C3.15413 3.5 3.01424 3.55795 2.91109 3.66109C2.80795 3.76424 2.75 3.90413 2.75 4.05V5.7C2.75 6.0025 2.9975 6.25 3.3 6.25H18.7C18.8459 6.25 18.9858 6.19205 19.0889 6.08891C19.1921 5.98576 19.25 5.84587 19.25 5.7V4.05C19.25 3.90413 19.1921 3.76424 19.0889 3.66109C18.9858 3.55795 18.8459 3.5 18.7 3.5Z" fill="black"/>
</g>
<defs>
<clipPath id="clip0_26_1104">
<rect width="22" height="16.5" fill="white" transform="translate(0 0.75)"/>
</clipPath>
</defs>
</svg>
