<?xml version="1.0" standalone="no"?>
<!DOCTYPE svg PUBLIC "-//W3C//DTD SVG 20010904//EN"
 "http://www.w3.org/TR/2001/REC-SVG-20010904/DTD/svg10.dtd">
<svg version="1.0" xmlns="http://www.w3.org/2000/svg"
 width="1601.000000pt" height="1601.000000pt" viewBox="0 0 1601.000000 1601.000000"
 preserveAspectRatio="xMidYMid meet">
<metadata>
Created by potrace 1.14, written by Peter Selinger 2001-2017
</metadata>
<g transform="translate(0.000000,1601.000000) scale(0.100000,-0.100000)"
fill="#000000" stroke="none">
<path d="M7703 16000 c-2 -3 -44 -6 -91 -8 -110 -3 -258 -13 -397 -28 -27 -3
-68 -7 -90 -9 -22 -2 -62 -7 -90 -11 -27 -4 -65 -7 -82 -7 -18 -1 -33 -5 -33
-10 0 -5 -12 -7 -28 -6 -15 2 -32 0 -39 -4 -6 -4 -22 -7 -34 -7 -28 1 -94 -7
-94 -10 0 -3 -55 -11 -92 -13 -18 -1 -33 -5 -33 -10 0 -4 -11 -5 -25 -3 -14 3
-25 0 -25 -6 0 -6 -9 -8 -20 -5 -11 3 -22 1 -25 -3 -3 -5 -13 -9 -23 -9 -22
-1 -76 -9 -79 -11 -2 -2 -11 -3 -20 -5 -10 -1 -25 -5 -34 -9 -9 -4 -32 -8 -53
-9 -20 -1 -36 -6 -36 -11 0 -4 -9 -6 -20 -3 -11 3 -20 1 -20 -3 0 -5 -8 -9
-17 -9 -30 -1 -58 -7 -71 -15 -6 -4 -16 -5 -21 -1 -5 3 -13 0 -16 -6 -4 -5
-13 -8 -20 -5 -7 2 -16 2 -19 -2 -7 -7 -31 -13 -58 -15 -10 -1 -18 -5 -18 -10
0 -5 -9 -7 -20 -4 -11 3 -20 1 -20 -5 0 -5 -6 -8 -12 -5 -7 2 -26 -2 -41 -10
-16 -8 -31 -12 -35 -9 -3 3 -11 1 -19 -5 -7 -6 -13 -8 -13 -4 0 4 -6 3 -13 -3
-7 -6 -24 -13 -37 -15 -14 -2 -38 -9 -53 -16 -16 -6 -33 -9 -38 -5 -5 3 -9 0
-9 -5 0 -6 -8 -11 -19 -11 -10 0 -35 -7 -55 -15 -20 -8 -36 -13 -36 -10 0 3
-14 -2 -30 -10 -17 -9 -35 -13 -40 -10 -6 3 -10 1 -10 -5 0 -7 -7 -10 -15 -6
-8 3 -15 2 -15 -3 0 -11 -71 -31 -84 -24 -6 3 -8 2 -3 -2 8 -10 -62 -37 -75
-29 -4 3 -8 1 -8 -4 0 -6 -13 -15 -30 -21 -16 -5 -30 -7 -30 -4 0 3 -7 0 -15
-7 -8 -7 -15 -9 -15 -4 0 5 -4 3 -8 -3 -4 -7 -17 -14 -27 -16 -11 -2 -36 -11
-55 -20 -19 -8 -38 -13 -42 -11 -5 3 -8 0 -8 -6 0 -7 -6 -10 -12 -8 -7 3 -19
-1 -26 -9 -8 -7 -18 -11 -23 -8 -5 4 -9 2 -9 -3 0 -9 -47 -27 -62 -24 -5 1 -8
-3 -8 -9 0 -6 -7 -9 -15 -5 -8 3 -15 2 -15 -3 0 -11 -50 -32 -61 -26 -5 4 -9
1 -9 -5 0 -6 -4 -8 -10 -5 -5 3 -10 2 -10 -4 0 -8 -26 -21 -50 -26 -3 0 -24
-11 -47 -23 -24 -12 -43 -20 -43 -16 0 3 -7 -2 -16 -10 -8 -9 -20 -14 -25 -11
-5 4 -9 1 -9 -6 0 -7 -3 -10 -6 -6 -3 3 -11 2 -18 -3 -6 -6 -81 -45 -166 -89
-85 -43 -180 -93 -210 -109 -30 -17 -66 -37 -80 -45 -14 -7 -71 -41 -128 -75
-56 -33 -102 -58 -102 -54 0 4 -4 2 -8 -4 -12 -18 -180 -123 -186 -117 -3 4
-6 2 -6 -4 0 -12 -100 -79 -112 -76 -5 2 -8 -1 -8 -6 0 -12 -102 -77 -115 -73
-5 2 -7 0 -3 -4 4 -4 -20 -26 -55 -50 -34 -24 -66 -47 -72 -51 -77 -61 -174
-131 -179 -127 -3 2 -4 1 -1 -2 6 -9 -86 -80 -99 -76 -6 2 -8 1 -4 -3 4 -4
-23 -32 -60 -62 -37 -30 -78 -64 -92 -76 -14 -12 -27 -22 -30 -23 -3 0 -30
-24 -60 -53 -30 -29 -72 -67 -94 -84 -21 -18 -129 -122 -240 -231 -110 -110
-205 -199 -209 -198 -5 2 -6 -2 -3 -7 3 -5 -14 -27 -38 -49 -24 -22 -42 -43
-40 -45 3 -3 -8 -15 -23 -28 -15 -13 -38 -37 -51 -54 -13 -16 -40 -48 -60 -70
-38 -41 -126 -144 -152 -179 -8 -11 -27 -32 -42 -48 -14 -15 -24 -28 -22 -28
4 0 -102 -138 -115 -150 -4 -3 -19 -24 -35 -47 -16 -24 -33 -43 -37 -43 -5 0
-8 -4 -6 -8 1 -5 -13 -28 -31 -53 -65 -88 -118 -166 -181 -264 -36 -55 -70
-105 -75 -110 -6 -6 -22 -32 -36 -58 -14 -27 -33 -57 -43 -68 -10 -10 -15 -19
-11 -19 4 0 1 -8 -7 -17 -8 -10 -23 -34 -33 -53 -10 -19 -26 -41 -34 -47 -9
-7 -13 -13 -9 -13 4 0 1 -13 -8 -30 -9 -16 -19 -30 -24 -30 -4 0 -8 -6 -8 -12
0 -7 -28 -65 -63 -128 -35 -63 -70 -128 -78 -145 -9 -16 -20 -33 -25 -36 -5
-3 -8 -9 -7 -13 3 -12 -63 -146 -72 -146 -5 0 -7 -4 -3 -9 6 -10 -53 -141 -68
-152 -5 -3 -8 -10 -8 -15 1 -15 -31 -94 -39 -94 -4 0 -7 -6 -7 -12 0 -7 -7
-29 -15 -48 -8 -19 -28 -66 -43 -105 -15 -38 -34 -83 -40 -100 -7 -16 -23 -59
-35 -95 -13 -36 -26 -69 -30 -75 -4 -5 -10 -22 -14 -37 -3 -15 -11 -40 -18
-55 -6 -15 -12 -32 -13 -38 -6 -23 -68 -211 -73 -220 -3 -5 -7 -16 -8 -25 -2
-17 -82 -307 -91 -330 -3 -8 -7 -19 -7 -25 -6 -47 -19 -96 -27 -101 -5 -3 -7
-9 -5 -12 2 -4 -2 -34 -10 -67 -8 -33 -16 -69 -18 -80 -18 -104 -70 -373 -74
-385 -3 -8 -4 -19 -3 -23 0 -4 -3 -36 -9 -70 -18 -118 -45 -335 -55 -457 -3
-36 -8 -92 -11 -124 -8 -88 -26 -550 -26 -656 1 -110 13 -508 16 -525 2 -11 7
-63 10 -115 6 -86 51 -469 61 -530 3 -14 10 -54 15 -90 6 -36 13 -75 15 -88 2
-12 9 -50 15 -85 27 -150 104 -478 155 -662 291 -1045 791 -2008 1484 -2860
395 -485 873 -945 1376 -1322 863 -647 1835 -1104 2885 -1357 102 -24 199 -47
215 -49 17 -3 41 -8 55 -11 37 -9 67 -14 257 -46 205 -35 408 -61 573 -75 41
-4 91 -8 110 -10 249 -27 1042 -27 1255 0 17 2 66 7 110 10 44 3 94 8 110 10
17 3 53 7 80 10 556 61 1194 212 1750 413 1518 550 2840 1564 3773 2897 789
1128 1275 2465 1387 3823 3 34 7 89 10 122 20 225 20 823 0 1065 -3 39 -7 104
-10 145 -4 62 -21 234 -39 400 -4 29 -17 122 -41 275 -8 56 -54 290 -75 389
-12 54 -23 106 -25 115 -10 47 -45 186 -65 256 -12 44 -23 85 -25 90 -1 6 -12
42 -24 82 -12 39 -24 78 -25 85 -2 7 -8 26 -14 41 -7 16 -12 32 -12 37 0 12
-130 376 -170 475 -18 44 -33 85 -35 90 -1 6 -12 33 -24 60 -12 28 -26 59 -31
70 -4 11 -27 60 -49 108 -23 49 -41 91 -41 94 0 3 -40 86 -89 184 -49 97 -87
180 -84 183 4 3 1 6 -5 6 -7 0 -22 21 -35 48 -30 60 -62 116 -160 282 -45 74
-79 137 -78 139 1 2 -1 7 -6 10 -13 9 -93 129 -93 140 0 5 -4 11 -8 13 -9 4
-72 93 -72 103 0 4 -6 13 -12 20 -22 23 -68 90 -68 97 0 4 -14 22 -30 40 -17
18 -30 38 -30 45 0 7 -4 13 -8 13 -9 0 -76 90 -77 102 0 4 -7 13 -16 20 -19
16 -93 108 -87 108 3 0 -12 19 -33 41 -21 23 -36 46 -33 51 3 5 2 7 -3 6 -9
-3 -73 64 -73 75 0 4 -10 17 -22 29 -13 13 -48 52 -78 87 -30 34 -66 75 -80
90 -14 15 -68 73 -120 130 -150 163 -399 402 -575 552 -22 19 -42 36 -45 39
-3 3 -30 25 -60 50 -30 25 -60 49 -66 55 -6 5 -28 24 -49 40 -21 17 -52 41
-69 55 -17 14 -64 50 -103 79 -40 29 -73 58 -73 64 0 6 -3 7 -6 4 -7 -6 -86
50 -92 65 -2 5 -7 8 -12 8 -5 0 -44 25 -87 55 -111 79 -283 191 -350 231 -18
10 -33 23 -33 28 0 5 -3 7 -6 3 -4 -3 -26 7 -50 23 -23 17 -45 30 -48 30 -8 0
-111 65 -118 75 -4 5 -8 6 -8 1 0 -5 -6 -4 -12 2 -7 5 -53 32 -103 58 -49 26
-93 52 -97 58 -4 6 -8 7 -8 2 0 -4 -12 -1 -26 9 -31 20 -222 115 -281 140 -24
10 -43 22 -43 27 0 4 -3 7 -7 6 -19 -4 -62 15 -56 25 3 6 1 7 -5 3 -11 -7 -73
21 -80 36 -2 4 -9 5 -16 2 -8 -3 -21 2 -30 11 -9 9 -16 13 -16 9 0 -3 -7 0
-17 7 -9 8 -18 13 -20 11 -5 -5 -73 21 -73 28 0 3 -10 6 -22 7 -11 1 -24 6
-27 10 -3 4 -15 10 -26 11 -11 2 -24 8 -29 13 -6 5 -18 9 -28 9 -10 0 -18 5
-18 11 0 5 -3 8 -7 6 -5 -3 -19 0 -33 6 -14 5 -31 11 -39 13 -8 1 -17 6 -20
11 -3 4 -15 9 -26 10 -11 1 -38 10 -60 19 -22 10 -46 19 -53 20 -8 1 -21 6
-30 10 -9 4 -26 9 -37 11 -10 2 -22 7 -25 11 -3 4 -16 9 -29 9 -13 1 -27 6
-30 10 -3 4 -17 9 -31 11 -14 1 -26 7 -28 12 -2 5 -10 6 -18 3 -8 -3 -14 0
-14 6 0 6 -6 8 -14 5 -8 -3 -17 -1 -20 5 -4 6 -13 8 -21 4 -8 -3 -15 0 -15 7
0 6 -4 8 -10 5 -5 -3 -16 -3 -22 2 -7 4 -24 9 -38 11 -13 2 -30 7 -36 13 -6 5
-14 6 -17 2 -4 -3 -7 -2 -7 4 0 6 -9 9 -22 5 -13 -3 -19 -1 -15 5 5 7 0 9 -13
6 -11 -3 -20 -1 -20 5 0 6 -8 8 -19 5 -10 -3 -22 0 -25 6 -4 5 -13 8 -21 4 -8
-3 -15 0 -15 7 0 6 -4 8 -10 5 -5 -3 -16 -3 -22 2 -7 4 -22 9 -33 11 -11 2
-25 5 -32 6 -7 1 -15 5 -19 8 -3 4 -12 4 -19 2 -7 -3 -16 0 -20 5 -3 6 -11 9
-16 6 -5 -4 -15 -3 -21 2 -7 4 -28 9 -46 10 -19 1 -39 7 -46 12 -7 6 -16 8
-19 5 -3 -3 -12 -2 -19 2 -7 5 -21 9 -30 10 -10 1 -19 2 -20 4 -2 1 -14 3 -28
5 -27 3 -65 12 -65 15 0 1 -13 3 -30 6 -50 6 -80 11 -80 14 0 3 -53 10 -82 10
-12 0 -24 4 -27 9 -3 4 -17 6 -31 3 -14 -2 -25 0 -25 5 0 5 -15 9 -32 10 -65
4 -96 8 -103 15 -4 4 -13 4 -21 1 -8 -3 -22 -2 -31 2 -10 5 -31 9 -48 11 -16
1 -55 5 -85 9 -30 3 -70 6 -87 6 -18 -1 -33 3 -33 7 0 5 -21 7 -47 6 -26 -2
-52 1 -58 5 -5 4 -32 6 -58 6 -26 -1 -50 1 -52 5 -2 3 -32 5 -67 4 -34 -2 -67
0 -72 3 -18 12 -782 24 -793 13z"/>
</g>
</svg>
